<svg width="11" height="12" viewBox="0 0 11 12" fill="none" xmlns="http://www.w3.org/2000/svg">
<path d="M8.78906 10.0709C8.8619 10.0207 8.93317 9.96876 9.00286 9.91504" stroke="black" stroke-linecap="round" stroke-linejoin="round"/>
<path d="M7.50391 10.7055C7.72222 10.6348 7.93541 10.5492 8.14196 10.4492" stroke="black" stroke-linecap="round" stroke-linejoin="round"/>
<path d="M5.55859 10.9323C5.9647 10.9667 6.3735 10.9507 6.77569 10.8848" stroke="black" stroke-linecap="round" stroke-linejoin="round"/>
<path d="M3.07422 10.0186C3.59289 10.3895 4.17774 10.6579 4.79724 10.809" stroke="black" stroke-linecap="round" stroke-linejoin="round"/>
<path d="M10.1159 3.21709C9.7282 2.63508 9.22219 2.14134 8.63084 1.76806C8.03949 1.39478 7.37609 1.15036 6.68392 1.05074C5.99175 0.951121 5.28635 0.998539 4.61374 1.1899C3.94113 1.38126 3.31641 1.71227 2.78034 2.16133C2.24427 2.6104 1.80889 3.16742 1.5026 3.79608C1.19631 4.42474 1.02599 5.11091 1.00275 5.80983C0.979508 6.50875 1.10387 7.20472 1.36772 7.85233C1.63157 8.49995 2.02898 9.08467 2.53404 9.56836" stroke="black" stroke-linecap="round" stroke-linejoin="round"/>
<path d="M10.2158 1.97363L10.1113 3.2175L8.86719 3.11304" stroke="black" stroke-linecap="round" stroke-linejoin="round"/>
</svg>
