<svg width="12" height="12" viewBox="0 0 12 12" fill="none" xmlns="http://www.w3.org/2000/svg">
<path d="M2.22205 1.75766C2.30859 1.84422 2.35721 1.96161 2.35721 2.08401C2.35721 2.20642 2.30859 2.32381 2.22205 2.41037C1.59166 3.04012 1.13824 3.82478 0.907377 4.68541C0.891745 4.74397 0.864733 4.79887 0.827883 4.84698C0.791033 4.8951 0.745067 4.93548 0.692609 4.96583C0.640152 4.99618 0.58223 5.0159 0.522151 5.02387C0.462072 5.03183 0.401013 5.02789 0.342459 5.01226C0.283905 4.99662 0.229003 4.96961 0.180889 4.93276C0.132775 4.89591 0.0923894 4.84995 0.0620393 4.79749C0.0316892 4.74503 0.0119685 4.68711 0.00400326 4.62703C-0.00396196 4.56695 -1.58065e-05 4.50589 0.0156165 4.44734C0.288386 3.4299 0.824285 2.50223 1.5694 1.75766C1.65596 1.67114 1.77334 1.62254 1.89573 1.62254C2.01811 1.62254 2.13549 1.67114 2.22205 1.75766ZM0.908166 7.31391C0.8926 7.25524 0.865613 7.20022 0.828751 7.152C0.791889 7.10378 0.745877 7.0633 0.693349 7.03289C0.64082 7.00247 0.582809 6.98272 0.522635 6.97476C0.462462 6.9668 0.401309 6.97079 0.34268 6.9865C0.28405 7.0022 0.229095 7.02932 0.180962 7.0663C0.132828 7.10328 0.0924627 7.14939 0.0621763 7.20199C0.0318898 7.25459 0.0122775 7.31265 0.00446253 7.37285C-0.00335241 7.43304 0.000783618 7.49418 0.0166336 7.55277C0.288888 8.57035 0.82432 9.49829 1.56906 10.2432C1.65571 10.3296 1.77311 10.378 1.89546 10.3779C2.0178 10.3777 2.13508 10.329 2.22151 10.2424C2.30794 10.1558 2.35645 10.0385 2.35637 9.91611C2.35629 9.79376 2.30763 9.67645 2.22109 9.58997C1.5912 8.95972 1.13838 8.17471 0.908166 7.31391ZM7.12542 10.9045C6.26465 11.1349 5.35837 11.1346 4.49777 10.9035C4.43921 10.8877 4.37812 10.8837 4.31799 10.8916C4.25786 10.8994 4.19987 10.9191 4.14733 10.9494C4.0948 10.9797 4.04875 11.02 4.01183 11.0681C3.9749 11.1162 3.94781 11.1711 3.93212 11.2297C3.91643 11.2883 3.91243 11.3494 3.92036 11.4095C3.9283 11.4696 3.948 11.5276 3.97835 11.5801C4.0087 11.6326 4.0491 11.6786 4.09724 11.7155C4.14538 11.7524 4.20032 11.7794 4.25891 11.7951C5.27629 12.068 6.34762 12.0683 7.36513 11.7958C7.48323 11.764 7.58385 11.6865 7.64487 11.5805C7.70589 11.4745 7.72232 11.3486 7.69056 11.2304C7.65879 11.1123 7.58142 11.0116 7.47545 10.9505C7.36948 10.8894 7.24358 10.8728 7.12542 10.9045ZM11.2809 6.98767C11.2223 6.97203 11.1613 6.96809 11.1012 6.97605C11.0411 6.98401 10.9832 7.00374 10.9307 7.03409C10.8783 7.06444 10.8323 7.10483 10.7955 7.15295C10.7586 7.20107 10.7316 7.25597 10.716 7.31453C10.4851 8.17516 10.0317 8.95983 9.40132 9.58958C9.31487 9.67614 9.26633 9.7935 9.26637 9.91584C9.26641 10.0382 9.31502 10.1555 9.40153 10.242C9.48803 10.3285 9.60535 10.3771 9.72769 10.3772C9.85003 10.3772 9.96739 10.3287 10.054 10.2423C10.7991 9.49772 11.335 8.57005 11.6077 7.5526C11.6393 7.43434 11.6226 7.30839 11.5613 7.20245C11.5 7.0965 11.3991 7.01925 11.2809 6.98767ZM10.7152 4.68609C10.7468 4.80432 10.8242 4.90512 10.9302 4.96632C10.9827 4.99663 11.0406 5.0163 11.1007 5.02421C11.1608 5.03212 11.2218 5.02812 11.2804 5.01244C11.3389 4.99676 11.3938 4.9697 11.4419 4.9328C11.49 4.89591 11.5303 4.84991 11.5606 4.79742C11.5909 4.74494 11.6106 4.687 11.6185 4.62691C11.6264 4.56683 11.6224 4.50577 11.6067 4.44723C11.3345 3.42963 10.7991 2.50168 10.0543 1.75676C9.96765 1.67039 9.85025 1.62195 9.72791 1.6221C9.60556 1.62226 9.48828 1.67099 9.40185 1.75758C9.31542 1.84418 9.26692 1.96155 9.267 2.08389C9.26708 2.20624 9.31573 2.32354 9.40227 2.41003C10.0322 3.04026 10.485 3.82527 10.7152 4.68609ZM4.49794 1.09544C5.35872 0.865024 6.26499 0.865374 7.12559 1.09646C7.24382 1.12813 7.36979 1.11154 7.47579 1.05034C7.58179 0.989137 7.65913 0.888333 7.69081 0.770105C7.72248 0.651876 7.70589 0.525907 7.64469 0.419909C7.58349 0.313911 7.48268 0.236567 7.36446 0.204892C6.34707 -0.0680294 5.27576 -0.0683016 4.25823 0.204103C4.19971 0.219842 4.14486 0.246955 4.09681 0.283893C4.04876 0.320831 4.00846 0.366872 3.9782 0.419385C3.9171 0.525442 3.90063 0.651427 3.93242 0.769626C3.96421 0.887824 4.04165 0.988555 4.1477 1.04966C4.25376 1.11076 4.37974 1.12723 4.49794 1.09544Z" fill="#404040"/>
</svg>
