<svg width="12" height="15" viewBox="0 0 12 15" fill="none" xmlns="http://www.w3.org/2000/svg">
<path fill-rule="evenodd" clip-rule="evenodd" d="M5.64675 4.14645C5.842 3.95119 6.1586 3.95119 6.35385 4.14645L9.1823 6.9749C9.37755 7.17015 9.37755 7.4867 9.1823 7.682C8.987 7.87725 8.67045 7.87725 8.47515 7.682L6.0003 5.20709L3.52543 7.682C3.33017 7.87725 3.01358 7.87725 2.81832 7.682C2.62306 7.4867 2.62306 7.17015 2.81832 6.9749L5.64675 4.14645Z" fill="#404040"/>
<path fill-rule="evenodd" clip-rule="evenodd" d="M5.64675 7.14645C5.842 6.95119 6.1586 6.95119 6.35385 7.14645L9.1823 9.9749C9.37755 10.1701 9.37755 10.4867 9.1823 10.682C8.987 10.8772 8.67045 10.8772 8.47515 10.682L6.0003 8.20709L3.52543 10.682C3.33017 10.8772 3.01358 10.8772 2.81832 10.682C2.62306 10.4867 2.62306 10.1701 2.81832 9.9749L5.64675 7.14645Z" fill="#404040"/>
</svg>
