<svg width="10" height="10" viewBox="0 0 10 10" fill="none" xmlns="http://www.w3.org/2000/svg">
<g clip-path="url(#clip0_800_1430)">
<path d="M6.41382 4.82528C6.462 4.72998 6.50602 4.62996 6.54557 4.52466C6.58529 4.41886 6.61987 4.30851 6.64893 4.19312C6.67741 4.08097 6.69849 3.9659 6.71265 3.84782C6.72664 3.73047 6.73356 3.60913 6.73356 3.48397C6.73356 3.27474 6.71346 3.07357 6.67293 2.88062C6.63257 2.68896 6.5717 2.50244 6.48991 2.32121C6.48812 2.31706 6.48633 2.31299 6.48478 2.30876C6.40348 2.12899 6.30835 1.96094 6.1993 1.80477C6.08895 1.64681 5.96297 1.49935 5.82121 1.36287L5.8195 1.36117C5.67887 1.22437 5.5262 1.10246 5.36157 0.995117C5.19613 0.887288 5.01717 0.793294 4.82479 0.712809C4.63534 0.634196 4.43897 0.574951 4.2356 0.535238C4.03304 0.495768 3.82275 0.47583 3.60482 0.47583C3.38672 0.47583 3.17643 0.495768 2.97396 0.535238C2.77059 0.574951 2.57422 0.634196 2.38477 0.712809C2.19246 0.793213 2.01392 0.887288 1.84863 0.995117C1.68376 1.10262 1.53076 1.22485 1.38916 1.36198C1.24723 1.49951 1.12044 1.64787 1.00936 1.80688C0.898356 1.96582 0.801676 2.13704 0.719645 2.32039C0.638509 2.50163 0.577393 2.68929 0.536621 2.88322C0.496175 3.07544 0.47583 3.2758 0.47583 3.48405C0.47583 3.69564 0.496175 3.89836 0.536621 4.09204C0.577474 4.28768 0.638509 4.47624 0.719645 4.65731C0.801676 4.84049 0.898356 5.01172 1.00936 5.17065C1.12044 5.32975 1.24715 5.47803 1.38916 5.61572C1.53068 5.75277 1.68376 5.875 1.84863 5.98258C2.01392 6.09033 2.19255 6.18441 2.38477 6.26489C2.57422 6.34342 2.77059 6.40267 2.97396 6.44246C3.17651 6.48202 3.38672 6.50187 3.60482 6.50187C3.77279 6.50187 3.93563 6.48983 4.0931 6.46615C4.25342 6.44198 4.40837 6.40625 4.55794 6.35905C4.70866 6.31152 4.85319 6.25496 4.99178 6.18897C5.12972 6.12345 5.26229 6.04842 5.38965 5.96403C5.49902 5.89168 5.64632 5.92163 5.71867 6.03092C5.7334 6.05314 5.74382 6.07682 5.75033 6.10116L6.03971 7.03198H7.0367C7.16805 7.03198 7.27458 7.13867 7.27458 7.26994V8.26855H8.27482C8.40625 8.26855 8.51278 8.37508 8.51278 8.50651V9.39404H9.52433V8.23153L6.44995 5.11076C6.37329 5.03288 6.36149 4.91536 6.41382 4.82528ZM6.98991 4.69198C6.96411 4.76066 6.93579 4.82886 6.90511 4.89665L9.91862 7.95589C9.96851 7.99943 10 8.06364 10 8.13501V9.632C10 9.76327 9.89347 9.86995 9.76204 9.86995H8.27474C8.14339 9.86995 8.03678 9.76327 8.03678 9.632V8.74447H7.03662C6.90519 8.74447 6.79867 8.63794 6.79867 8.50651V7.50781H5.86515V7.50716C5.76367 7.50732 5.66968 7.44165 5.63835 7.3396L5.38395 6.52148C5.32186 6.55534 5.25871 6.58773 5.19442 6.61825C5.03573 6.6936 4.87069 6.75846 4.69922 6.8125C4.52498 6.86735 4.34652 6.90885 4.16374 6.93628C3.98161 6.96362 3.79525 6.97762 3.60474 6.97762C3.35758 6.97762 3.11702 6.95459 2.88273 6.90877C2.64917 6.86312 2.42253 6.79468 2.20247 6.70345C1.98519 6.61255 1.78117 6.50496 1.59017 6.38013C1.39868 6.25521 1.22144 6.11393 1.05827 5.95573C0.896566 5.79899 0.75057 5.62769 0.62085 5.44198C0.491943 5.25741 0.38029 5.06006 0.28654 4.85042C0.191243 4.6377 0.119629 4.41691 0.0719401 4.18864C0.0240885 3.95939 0 3.72437 0 3.48405C0 3.24674 0.0240885 3.01416 0.0719401 2.78662C0.119629 2.5599 0.191243 2.33993 0.28654 2.12712C0.380371 1.91748 0.491943 1.72021 0.62085 1.53556C0.75057 1.34985 0.896566 1.17847 1.05827 1.02181C1.22144 0.863688 1.39868 0.722331 1.59017 0.597412C1.78125 0.472738 1.98519 0.365153 2.20247 0.27417C2.42253 0.182861 2.64925 0.114339 2.88273 0.0687663C3.11711 0.0229492 3.35767 0 3.60474 0C3.85173 0 4.09237 0.0229492 4.32666 0.0687663C4.56014 0.114339 4.78695 0.182943 5.007 0.27417C5.2242 0.365072 5.42863 0.472656 5.61987 0.597412C5.81095 0.722005 5.98763 0.862793 6.14941 1.02018L6.15023 1.02091C6.31266 1.17741 6.45841 1.34831 6.58773 1.53353C6.7146 1.71501 6.82422 1.90869 6.91724 2.11434C6.91927 2.11816 6.92122 2.12215 6.92301 2.12622C7.01839 2.33748 7.08984 2.55688 7.13761 2.7841C7.18563 3.01253 7.20947 3.24593 7.20947 3.48413C7.20947 3.62565 7.20134 3.76554 7.18473 3.90373C7.16838 4.04118 7.14347 4.17619 7.10994 4.30851C7.07715 4.43905 7.03695 4.56681 6.98991 4.69198ZM3.11898 1.99829C3.2618 1.99829 3.39624 2.02417 3.5223 2.07601C3.64868 2.12793 3.76196 2.20418 3.8623 2.30444C3.96273 2.40479 4.0389 2.51823 4.09082 2.64453C4.14258 2.77051 4.16854 2.90495 4.16854 3.04785C4.16854 3.18978 4.14258 3.32381 4.09066 3.44954C4.03931 3.57414 3.96313 3.68709 3.8623 3.78817L3.86182 3.78857L3.86141 3.78906L3.86125 3.78923C3.76025 3.89014 3.6473 3.96623 3.52238 4.01758C3.3964 4.06942 3.26188 4.0953 3.11906 4.0953C2.97616 4.0953 2.84237 4.06934 2.7181 4.0175C2.59391 3.96566 2.48193 3.88859 2.38241 3.7863C2.28353 3.68457 2.20858 3.57145 2.15828 3.44735C2.10799 3.32308 2.08244 3.18978 2.08244 3.04785C2.08244 2.9056 2.10791 2.77214 2.1582 2.64771C2.20882 2.52222 2.28385 2.40869 2.38241 2.30729C2.48202 2.205 2.59408 2.12793 2.71818 2.07617C2.84229 2.02425 2.97607 1.99829 3.11898 1.99829ZM3.34188 2.51473C3.2762 2.48771 3.20182 2.4742 3.1189 2.4742C3.038 2.4742 2.96501 2.48771 2.90015 2.51481C2.83545 2.54183 2.77612 2.58293 2.72233 2.6381C2.66707 2.69507 2.62557 2.75708 2.59855 2.8243C2.5717 2.89079 2.55802 2.96525 2.55802 3.04793C2.55802 3.12882 2.5717 3.20256 2.59863 3.26896C2.62614 3.33675 2.66748 3.39901 2.72241 3.45549C2.7762 3.51074 2.83553 3.55192 2.90023 3.57886C2.96509 3.60596 3.03809 3.61947 3.11898 3.61947C3.20199 3.61947 3.27629 3.60596 3.34204 3.57894C3.40837 3.55168 3.46965 3.50985 3.52588 3.45361L3.52677 3.45272C3.58301 3.39648 3.62484 3.33529 3.65202 3.26929C3.67912 3.20369 3.69271 3.1298 3.69271 3.04793C3.69271 2.96493 3.67912 2.89063 3.65218 2.82495C3.62533 2.7596 3.58317 2.69824 3.52588 2.64103C3.46859 2.58366 3.40731 2.54159 3.34188 2.51473Z" fill="black"/>
</g>
<defs>
<clipPath id="clip0_800_1430">
<rect width="10" height="9.86987" fill="white"/>
</clipPath>
</defs>
</svg>
