<svg width="10" height="10" viewBox="0 0 10 10" fill="none" xmlns="http://www.w3.org/2000/svg">
<path d="M9.9962 2.6015C9.98602 2.404 9.86053 2.231 9.67602 2.16018C9.61768 2.13785 9.55702 2.12684 9.49686 2.12684C9.36653 2.12684 9.23869 2.17783 9.14303 2.2735L7.97486 3.44266L6.78603 3.21648L6.56003 2.02682L7.7282 0.857656C7.86787 0.717832 7.9122 0.508828 7.84154 0.324316C7.7707 0.139824 7.59804 0.0141602 7.4007 0.00380859C7.35152 0.00132812 7.30218 0 7.25284 0C6.51567 0 5.82633 0.283496 5.31184 0.79834C4.49684 1.614 4.28484 2.82018 4.73967 3.84852L1.47532 7.11551L0.654473 7.93699C0.310135 8.28166 -0.406528 8.99883 0.300799 9.70682C0.542969 9.94916 0.795821 10 0.965314 10C1.42264 10 1.76616 9.65617 2.06932 9.35283L6.15501 5.26383C6.50233 5.41633 6.87884 5.49582 7.26251 5.49582C7.99535 5.49582 8.68436 5.21031 9.20235 4.69199C9.74768 4.14633 10.037 3.38434 9.9962 2.6015ZM8.84869 4.33801C8.41035 4.77668 7.83669 4.99535 7.26251 4.99535C6.84519 4.99535 6.42768 4.87984 6.06167 4.64936C4.5 6.21232 2.44265 8.27117 1.71549 8.99883C1.46532 9.24916 1.21532 9.49949 0.965158 9.49949C0.861662 9.49949 0.757989 9.45648 0.654317 9.35283C0.300643 8.99883 0.654317 8.64482 1.00799 8.291C1.73514 7.56334 3.79232 5.50449 5.35416 3.9415C4.80717 3.07133 4.90834 1.91 5.66534 1.15234C6.10384 0.713516 6.67784 0.500684 7.25267 0.500684C7.29333 0.500684 7.33384 0.50168 7.37451 0.503848L6.01917 1.86018L6.35817 3.64467L8.14134 3.984L9.49668 2.6275C9.52885 3.24268 9.31819 3.86801 8.84869 4.33801Z" fill="#404040" stroke="#404040" stroke-width="0.000533333"/>
</svg>
