<svg width="12" height="12" viewBox="0 0 12 12" fill="none" xmlns="http://www.w3.org/2000/svg">
<path d="M2.46241 10.3358C2.22771 10.8239 2.07934 11.1494 0.772417 11.1969C0.809789 9.9359 1.05047 9.80062 1.53146 9.56068C1.73327 9.45978 1.98479 9.33458 2.25686 9.12566L1.80166 8.54452C1.58677 8.70971 1.38907 8.79641 1.19809 8.89134C0.396447 9.29123 0.0186092 9.68476 0.0186092 11.5616L0.0249625 11.9436L0.392336 11.9353C2.37346 11.9353 2.74383 11.4876 3.11494 10.717C3.19604 10.5481 3.24126 10.4337 3.37842 10.2061L2.82418 9.7027C2.65824 9.92955 2.55435 10.1448 2.46241 10.335V10.3358ZM8.24658 2.22367C7.4199 2.22367 6.74756 2.89601 6.74756 3.72232C6.74756 4.54863 7.42027 5.22134 8.24658 5.22134C9.0729 5.22134 9.7456 4.54863 9.7456 3.72232C9.7456 2.89601 9.0729 2.22367 8.24658 2.22367ZM8.24658 4.47089C7.83399 4.47089 7.49801 4.13491 7.49801 3.72269C7.49801 3.31047 7.83362 2.97449 8.24658 2.97449C8.65955 2.97449 8.99516 3.31047 8.99516 3.72269C8.99516 4.13529 8.65955 4.47089 8.24658 4.47089ZM11.97 0.362513C11.9588 0.176023 11.8108 0.026532 11.6243 0.0127041C11.6243 0.0127041 9.53295 -0.139777 7.52081 0.611789C6.78569 0.886478 6.18062 1.32112 5.61592 1.98C5.14502 2.52938 4.67712 3.522 4.26415 4.34644C4.10457 4.66448 3.95209 4.96907 3.82278 5.20153H1.74373C1.63685 5.20153 1.53519 5.2475 1.46419 5.3271L0.094102 6.81192C0.00664989 6.91096 -0.0225008 7.04849 0.0178617 7.17406C0.0582242 7.29963 0.161747 7.39531 0.290309 7.42446L2.52034 7.93422C2.67245 8.12183 2.92546 8.4025 3.33058 8.8521L4.17558 9.78866L4.6304 11.7126C4.6603 11.8393 4.75411 11.9417 4.87818 11.9817C4.91593 11.9936 4.95517 12 4.99366 12C5.08186 12 5.16819 11.969 5.23696 11.9099L6.62162 10.5324C6.70421 10.4617 6.75205 10.3578 6.75205 10.2487V8.32028C6.93817 8.2048 7.26817 8.02653 7.57873 7.85275C8.42485 7.37999 9.68842 6.79099 10.212 6.32533C10.9498 5.66981 11.2181 5.1892 11.4819 4.47874C12.1091 2.78912 11.9764 0.460803 11.97 0.362513ZM10.7816 4.21825C10.5514 4.83827 10.3428 5.20901 9.71571 5.76623C9.25266 6.17771 7.98572 6.76857 7.21398 7.20022C6.63806 7.522 6.29311 7.70999 6.14175 7.83369C6.05468 7.90432 6.00422 8.01084 6.00422 8.12295V10.0764L5.21566 10.9431L4.87968 9.52294C4.8651 9.46202 4.83558 9.40559 4.79335 9.35887C4.10606 8.59721 3.06785 7.44576 2.98824 7.3542C2.9363 7.29104 2.86417 7.24619 2.78307 7.2275L1.07102 6.83584L1.91079 5.94824H4.03692C4.16698 5.94824 4.28769 5.88059 4.35534 5.77034C4.51978 5.50275 4.71038 5.12155 4.93163 4.68093C5.3061 3.93422 5.77176 2.94609 6.18286 2.46622C6.66871 1.89965 7.16165 1.54349 7.78167 1.31178C9.16109 0.79641 10.5842 0.742219 11.2349 0.747078C11.2469 1.43623 11.2211 3.03391 10.7812 4.21863L10.7816 4.21825Z" fill="#404040" stroke="#404040" stroke-width="0.00064"/>
</svg>
