<svg width="690" height="140" viewBox="0 0 690 140" fill="none" xmlns="http://www.w3.org/2000/svg">
<path fill-rule="evenodd" clip-rule="evenodd" d="M8.00868 9.51697C17.7457 40.689 146.466 37.647 110.173 111.456C105.456 82.15 -26.9283 83.509 8.00868 9.51697Z" fill="#0069D9"/>
<path fill-rule="evenodd" clip-rule="evenodd" d="M22.5039 74.96C34.4709 74.96 44.1729 83.628 44.1729 94.321C44.1729 100.683 40.7379 106.328 35.4359 109.857C39.3679 113.994 44.0189 117.585 48.7309 120.845C33.0159 121.32 17.0269 119.273 6.77894 107.64C3.09494 104.169 0.835938 99.481 0.835938 94.321C0.835938 83.628 10.5379 74.96 22.5039 74.96Z" fill="#000770"/>
<path fill-rule="evenodd" clip-rule="evenodd" d="M96.2426 45.984C84.2756 45.984 74.5746 37.315 74.5746 26.623C74.5746 20.261 78.0096 14.616 83.3116 11.086C79.3796 6.95002 74.7286 3.35802 70.0166 0.0980238C86.5136 -0.329976 103.969 3.33203 113.368 14.76C114.064 15.561 114.692 16.412 115.242 17.306L115.254 17.323C116.949 20.084 117.913 23.252 117.913 26.622C117.912 37.315 108.21 45.984 96.2426 45.984Z" fill="#00BBFF"/>
<path d="M171.476 99.642C171.476 99.642 182.646 113.605 202.593 113.605C221.21 113.605 232.381 101.238 232.381 86.876C232.381 56.024 187.168 60.28 187.168 41.264C187.168 34.216 193.551 28.631 203.657 28.631C211.104 28.631 218.152 32.222 218.152 37.142V41.53H230.386V33.817C230.386 21.051 213.631 16.53 203.657 16.53C185.97 16.53 173.603 27.568 173.603 41.663C173.603 70.919 218.949 67.86 218.949 87.541C218.949 96.185 211.635 101.504 202.859 101.504C188.896 101.504 179.321 90.201 179.321 90.201L171.476 99.642Z" fill="black"/>
<path d="M252.676 70.519C254.671 59.349 262.65 53.365 272.49 53.365C280.868 53.365 287.916 59.349 288.315 70.519H252.676ZM238.847 78.365C238.847 98.311 253.342 113.604 274.618 113.604C290.576 113.604 300.549 103.763 300.549 103.763L294.964 94.587C294.964 94.587 286.852 102.433 275.283 102.433C263.315 102.433 252.942 94.322 252.144 79.96H301.213C301.213 79.96 301.612 76.369 301.612 74.641C301.612 57.221 291.506 43.125 272.622 43.125C253.475 43.125 238.847 56.955 238.847 78.365Z" fill="black"/>
<path d="M309.409 103.498C309.409 109.482 311.935 112.009 317.919 112.009H330.686V100.972H325.234C323.372 100.972 322.308 100.04 322.308 98.046V26.636C322.308 20.652 319.782 18.125 313.797 18.125H301.031V29.163H306.483C308.345 29.163 309.409 30.094 309.409 32.088V103.498Z" fill="black"/>
<path d="M344.864 70.519C346.859 59.349 354.838 53.365 364.678 53.365C373.056 53.365 380.104 59.349 380.503 70.519H344.864ZM331.034 78.365C331.034 98.311 345.529 113.604 366.805 113.604C382.762 113.604 392.736 103.763 392.736 103.763L387.151 94.587C387.151 94.587 379.04 102.433 367.47 102.433C355.501 102.433 345.129 94.322 344.331 79.96H393.4C393.4 79.96 393.799 76.369 393.799 74.641C393.799 57.221 383.693 43.125 364.809 43.125C345.662 43.125 331.034 56.955 331.034 78.365Z" fill="black"/>
<path d="M398.006 78.365C398.006 98.578 412.767 113.604 433.91 113.604C451.729 113.604 461.304 102.035 461.304 102.035L455.719 92.859C455.719 92.859 447.475 102.168 434.841 102.168C422.341 102.168 411.171 93.524 411.171 78.231C411.171 64.002 421.011 54.162 434.176 54.162C439.097 54.162 446.676 56.289 446.676 61.077V64.801H458.379V57.886C458.379 46.45 442.288 43.126 434.176 43.126C412.501 43.125 398.006 58.551 398.006 78.365Z" fill="black"/>
<path d="M472.158 87.407C472.158 109.881 489.312 112.54 497.823 112.54C500.616 112.54 502.344 112.274 502.344 112.274V100.838C502.344 100.838 501.147 101.104 499.285 101.104C494.364 101.104 485.056 99.375 485.056 85.944V55.093H501.146V44.72H485.056V26.236H472.422V44.72H463.38V55.093H472.156V87.407H472.158Z" fill="black"/>
<path d="M508.013 123.977L502.694 133.286C502.694 133.286 508.546 139.935 518.518 139.935C527.96 139.935 536.072 134.483 540.194 124.11L566.79 58.419C567.722 56.291 568.918 55.759 571.046 55.759H572.775V44.721H565.062C559.61 44.721 557.216 46.184 555.222 51.503L541.259 89.402C539.929 92.859 538.998 97.513 538.998 97.513H538.732C538.732 97.513 537.668 92.859 536.337 89.402L521.045 51.503C518.917 46.184 516.923 44.721 511.471 44.721H503.891V55.759H505.487C507.614 55.759 508.811 56.291 509.742 58.419L532.748 111.744L529.689 119.057C527.163 125.041 523.04 128.764 517.854 128.764C512.135 128.764 508.013 124.109 508.013 123.977Z" fill="black"/>
<path d="M570.33 78.365C570.33 98.578 585.091 113.604 606.234 113.604C624.053 113.604 633.628 102.035 633.628 102.035L628.043 92.859C628.043 92.859 619.798 102.168 607.165 102.168C594.665 102.168 583.494 93.524 583.494 78.231C583.494 64.002 593.335 54.162 606.5 54.162C611.42 54.162 619 56.289 619 61.077V64.801H630.702V57.886C630.702 46.45 614.612 43.126 606.5 43.126C584.824 43.125 570.33 58.551 570.33 78.365Z" fill="black"/>
<path d="M637.567 101.77C637.567 101.77 646.476 113.605 664.429 113.605C678.525 113.605 689.163 105.892 689.163 93.923C689.163 71.45 652.46 74.242 652.46 61.477C652.46 56.158 657.381 53.498 664.96 53.498C669.083 53.498 675.066 55.227 675.066 59.216V62.541H686.635V56.158C686.635 45.918 672.672 43.126 664.561 43.126C650.864 43.126 639.561 49.11 639.561 62.009C639.561 83.684 676.263 82.355 676.263 94.456C676.263 100.308 670.811 103.1 664.561 103.1C652.194 103.1 644.215 93.127 644.215 93.127L637.567 101.77Z" fill="black"/>
</svg>
